<svg width="21" height="20" viewBox="0 0 21 20" fill="none" xmlns="http://www.w3.org/2000/svg">
<path d="M19.5501 8.4375C19.5501 8.87015 19.4218 9.29308 19.1814 9.65281C18.941 10.0125 18.5994 10.2929 18.1997 10.4585C17.8 10.6241 17.3601 10.6674 16.9358 10.583C16.5115 10.4986 16.1217 10.2902 15.8158 9.9843C15.5098 9.67837 15.3015 9.28859 15.2171 8.86426C15.1327 8.43993 15.176 8.00009 15.3416 7.60038C15.5071 7.20067 15.7875 6.85903 16.1472 6.61866C16.507 6.3783 16.9299 6.25 17.3625 6.25C17.9427 6.25 18.4991 6.48047 18.9093 6.89071C19.3196 7.30094 19.5501 7.85734 19.5501 8.4375ZM6.42505 8.4375C6.42505 8.00485 6.29676 7.58192 6.05639 7.22219C5.81602 6.86246 5.47438 6.58208 5.07467 6.41651C4.67496 6.25095 4.23512 6.20763 3.81079 6.29203C3.38646 6.37644 2.99668 6.58478 2.69075 6.89071C2.38483 7.19663 2.17649 7.58641 2.09208 8.01074C2.00768 8.43507 2.051 8.87491 2.21656 9.27462C2.38213 9.67433 2.66251 10.016 3.02224 10.2563C3.38197 10.4967 3.8049 10.625 4.23755 10.625C4.81771 10.625 5.37411 10.3945 5.78435 9.9843C6.19458 9.57406 6.42505 9.01766 6.42505 8.4375ZM7.98755 6.875C8.4202 6.875 8.84313 6.74671 9.20286 6.50634C9.56259 6.26598 9.84297 5.92433 10.0085 5.52462C10.1741 5.12491 10.2174 4.68507 10.133 4.26074C10.0486 3.83641 9.84027 3.44663 9.53435 3.1407C9.22842 2.83478 8.83864 2.62644 8.41431 2.54203C7.98998 2.45763 7.55014 2.50095 7.15043 2.66651C6.75072 2.83208 6.40908 3.11246 6.16871 3.47219C5.92834 3.83192 5.80005 4.25485 5.80005 4.6875C5.80005 5.26766 6.03052 5.82406 6.44075 6.2343C6.85099 6.64453 7.40739 6.875 7.98755 6.875ZM13.6125 6.875C14.0452 6.875 14.4681 6.74671 14.8279 6.50634C15.1876 6.26598 15.468 5.92433 15.6335 5.52462C15.7991 5.12491 15.8424 4.68507 15.758 4.26074C15.6736 3.83641 15.4653 3.44663 15.1593 3.1407C14.8534 2.83478 14.4636 2.62644 14.0393 2.54203C13.615 2.45763 13.1751 2.50095 12.7754 2.66651C12.3757 2.83208 12.0341 3.11246 11.7937 3.47219C11.5533 3.83192 11.425 4.25485 11.425 4.6875C11.425 5.26766 11.6555 5.82406 12.0658 6.2343C12.476 6.64453 13.0324 6.875 13.6125 6.875ZM15.4188 11.6297C15.1013 11.4546 14.8215 11.2185 14.5954 10.9351C14.3692 10.6517 14.2012 10.3265 14.1008 9.97813C13.893 9.26348 13.4589 8.63557 12.8637 8.18878C12.2684 7.74199 11.5443 7.50044 10.8 7.50044C10.0558 7.50044 9.33165 7.74199 8.73643 8.18878C8.14121 8.63557 7.70708 9.26348 7.49927 9.97813C7.29853 10.6792 6.82792 11.272 6.19067 11.6266C5.57936 11.9573 5.09577 12.4825 4.8164 13.1189C4.53702 13.7554 4.47781 14.4668 4.64811 15.1407C4.81842 15.8146 5.20853 16.4124 5.75675 16.8397C6.30496 17.267 6.97998 17.4994 7.67505 17.5C8.09158 17.5012 8.50404 17.418 8.88755 17.2555C10.1103 16.7512 11.4828 16.7512 12.7055 17.2555C13.4461 17.5776 14.2826 17.6004 15.0397 17.3193C15.7968 17.0382 16.4157 16.4749 16.7665 15.7475C17.1174 15.0201 17.173 14.1851 16.9218 13.4175C16.6705 12.65 16.1319 12.0096 15.4188 11.6305V11.6297Z" fill="#8C8C8C"/>
</svg>
